  0
SECTION
  2
HEADER
  9
$MEASUREMENT
  70
  1
  9
$INSUNITS
  70
  4
  0
ENDSEC
  0
SECTION
  2
TABLES
  0
TABLE
  2
LTYPE
 70
     1
  0
LTYPE
  2
CONTINUOUS
 70
    64
  3
Ausgezogene Linie
 72
    65
 73
     0
 40
0.0
  0
ENDTAB
  0
TABLE
  2
LAYER
 70
     3
  0
LAYER
  2
Contour
 70
    64
 62
     7
  6
CONTINUOUS
  0
LAYER
  2
Engraving
 70
    64
 62
     7
  6
CONTINUOUS
  0
LAYER
  2
Reference_points
 70
    64
 62
     1
  6
CONTINUOUS
  0
ENDTAB
  0
TABLE
  2
STYLE
 70
     1
  0
STYLE
  2
TXT
 70
    64
 40
0.0
 41
1.0
 50
0.0
 71
     0
 42
3.500000
  3
TXT
  0
ENDTAB
  0
ENDSEC
  0
SECTION
  2
BLOCKS
  0
ENDSEC
  0
SECTION
  2
ENTITIES
  0
LINE
  8
Contour
 62
   7
 39
0.100
  6
CONTINUOUS
 10
9.82000
 20
128.40000
 30
 0
 11
9.82000
 21
0.00000
  0
LINE
  8
Contour
 62
   7
 39
0.100
  6
CONTINUOUS
 10
9.82000
 20
0.00000
 30
 0
 11
0.00000
 21
0.00000
  0
LINE
  8
Contour
 62
   7
 39
0.100
  6
CONTINUOUS
 10
0.00000
 20
0.00000
 30
 0
 11
0.00000
 21
128.40000
  0
LINE
  8
Contour
 62
   7
 39
0.100
  6
CONTINUOUS
 10
0.00000
 20
128.40000
 30
 0
 11
9.82000
 21
128.40000
  0
LINE
  8
Engraving
 62
   7
 39
0.400
  6
CONTINUOUS
 10
3.14435
 20
88.02624
 30
 0
 11
3.14435
 21
87.68317
  0
LINE
  8
Engraving
 62
   7
 39
0.400
  6
CONTINUOUS
 10
3.14435
 20
87.68317
 30
 0
 11
3.18472
 21
87.50154
  0
LINE
  8
Engraving
 62
   7
 39
0.400
  6
CONTINUOUS
 10
3.18472
 20
87.50154
 30
 0
 11
3.28562
 21
87.34009
  0
LINE
  8
Engraving
 62
   7
 39
0.400
  6
CONTINUOUS
 10
3.28562
 20
87.34009
 30
 0
 11
3.42689
 21
87.23918
  0
LINE
  8
Engraving
 62
   7
 39
0.400
  6
CONTINUOUS
 10
3.42689
 20
87.23918
 30
 0
 11
3.62870
 21
87.19882
  0
LINE
  8
Engraving
 62
   7
 39
0.400
  6
CONTINUOUS
 10
3.62870
 20
87.19882
 30
 0
 11
3.87087
 21
87.19882
  0
LINE
  8
Engraving
 62
   7
 39
0.400
  6
CONTINUOUS
 10
3.87087
 20
87.19882
 30
 0
 11
4.01214
 21
87.21900
  0
LINE
  8
Engraving
 62
   7
 39
0.400
  6
CONTINUOUS
 10
4.01214
 20
87.21900
 30
 0
 11
4.19377
 21
87.31991
  0
LINE
  8
Engraving
 62
   7
 39
0.400
  6
CONTINUOUS
 10
4.19377
 20
87.31991
 30
 0
 11
4.31486
 21
87.48135
  0
LINE
  8
Engraving
 62
   7
 39
0.400
  6
CONTINUOUS
 10
4.31486
 20
87.48135
 30
 0
 11
4.35522
 21
87.68317
  0
LINE
  8
Engraving
 62
   7
 39
0.400
  6
CONTINUOUS
 10
4.35522
 20
87.68317
 30
 0
 11
4.35522
 21
87.82443
  0
LINE
  8
Engraving
 62
   7
 39
0.400
  6
CONTINUOUS
 10
4.35522
 20
87.82443
 30
 0
 11
4.31486
 21
87.96570
  0
LINE
  8
Engraving
 62
   7
 39
0.400
  6
CONTINUOUS
 10
4.31486
 20
87.96570
 30
 0
 11
4.23413
 21
88.12715
  0
LINE
  8
Engraving
 62
   7
 39
0.400
  6
CONTINUOUS
 10
4.23413
 20
88.12715
 30
 0
 11
4.15341
 21
88.20787
  0
LINE
  8
Engraving
 62
   7
 39
0.400
  6
CONTINUOUS
 10
4.15341
 20
88.20787
 30
 0
 11
4.03232
 21
88.30878
  0
LINE
  8
Engraving
 62
   7
 39
0.400
  6
CONTINUOUS
 10
4.03232
 20
88.30878
 30
 0
 11
3.44707
 21
88.83349
  0
LINE
  8
Engraving
 62
   7
 39
0.400
  6
CONTINUOUS
 10
3.44707
 20
88.83349
 30
 0
 11
3.34617
 21
88.91421
  0
LINE
  8
Engraving
 62
   7
 39
0.400
  6
CONTINUOUS
 10
3.34617
 20
88.91421
 30
 0
 11
3.24526
 21
89.03530
  0
LINE
  8
Engraving
 62
   7
 39
0.400
  6
CONTINUOUS
 10
3.24526
 20
89.03530
 30
 0
 11
3.20490
 21
89.09584
  0
LINE
  8
Engraving
 62
   7
 39
0.400
  6
CONTINUOUS
 10
3.20490
 20
89.09584
 30
 0
 11
3.18472
 21
89.19675
  0
LINE
  8
Engraving
 62
   7
 39
0.400
  6
CONTINUOUS
 10
3.18472
 20
89.19675
 30
 0
 11
3.18472
 21
89.37838
  0
LINE
  8
Engraving
 62
   7
 39
0.400
  6
CONTINUOUS
 10
3.18472
 20
89.37838
 30
 0
 11
3.24526
 21
89.56001
  0
LINE
  8
Engraving
 62
   7
 39
0.400
  6
CONTINUOUS
 10
3.24526
 20
89.56001
 30
 0
 11
3.32598
 21
89.68109
  0
LINE
  8
Engraving
 62
   7
 39
0.400
  6
CONTINUOUS
 10
3.32598
 20
89.68109
 30
 0
 11
3.44707
 21
89.76182
  0
LINE
  8
Engraving
 62
   7
 39
0.400
  6
CONTINUOUS
 10
3.44707
 20
89.76182
 30
 0
 11
3.64888
 21
89.80218
  0
LINE
  8
Engraving
 62
   7
 39
0.400
  6
CONTINUOUS
 10
3.64888
 20
89.80218
 30
 0
 11
3.85069
 21
89.80218
  0
LINE
  8
Engraving
 62
   7
 39
0.400
  6
CONTINUOUS
 10
3.85069
 20
89.80218
 30
 0
 11
3.97178
 21
89.78200
  0
LINE
  8
Engraving
 62
   7
 39
0.400
  6
CONTINUOUS
 10
3.97178
 20
89.78200
 30
 0
 11
4.11305
 21
89.72146
  0
LINE
  8
Engraving
 62
   7
 39
0.400
  6
CONTINUOUS
 10
4.11305
 20
89.72146
 30
 0
 11
4.21395
 21
89.62055
  0
LINE
  8
Engraving
 62
   7
 39
0.400
  6
CONTINUOUS
 10
4.21395
 20
89.62055
 30
 0
 11
4.29468
 21
89.47928
  0
LINE
  8
Engraving
 62
   7
 39
0.400
  6
CONTINUOUS
 10
4.29468
 20
89.47928
 30
 0
 11
4.31486
 21
89.33802
  0
LINE
  8
Engraving
 62
   7
 39
0.400
  6
CONTINUOUS
 10
4.31486
 20
89.33802
 30
 0
 11
4.31486
 21
89.15639
  0
LINE
  8
Engraving
 62
   7
 39
0.400
  6
CONTINUOUS
 10
4.88035
 20
89.78200
 30
 0
 11
4.88035
 21
87.21900
  0
LINE
  8
Engraving
 62
   7
 39
0.400
  6
CONTINUOUS
 10
6.67576
 20
89.09584
 30
 0
 11
6.67576
 21
89.33802
  0
LINE
  8
Engraving
 62
   7
 39
0.400
  6
CONTINUOUS
 10
6.67576
 20
89.33802
 30
 0
 11
6.65558
 21
89.51965
  0
LINE
  8
Engraving
 62
   7
 39
0.400
  6
CONTINUOUS
 10
6.65558
 20
89.51965
 30
 0
 11
6.57486
 21
89.64073
  0
LINE
  8
Engraving
 62
   7
 39
0.400
  6
CONTINUOUS
 10
6.57486
 20
89.64073
 30
 0
 11
6.45377
 21
89.74164
  0
LINE
  8
Engraving
 62
   7
 39
0.400
  6
CONTINUOUS
 10
6.45377
 20
89.74164
 30
 0
 11
6.33269
 21
89.80218
  0
LINE
  8
Engraving
 62
   7
 39
0.400
  6
CONTINUOUS
 10
6.33269
 20
89.80218
 30
 0
 11
6.21160
 21
89.80218
  0
LINE
  8
Engraving
 62
   7
 39
0.400
  6
CONTINUOUS
 10
6.21160
 20
89.80218
 30
 0
 11
5.86852
 21
89.80218
  0
LINE
  8
Engraving
 62
   7
 39
0.400
  6
CONTINUOUS
 10
5.86852
 20
89.80218
 30
 0
 11
5.70707
 21
89.78200
  0
LINE
  8
Engraving
 62
   7
 39
0.400
  6
CONTINUOUS
 10
5.70707
 20
89.78200
 30
 0
 11
5.56580
 21
89.70128
  0
LINE
  8
Engraving
 62
   7
 39
0.400
  6
CONTINUOUS
 10
5.56580
 20
89.70128
 30
 0
 11
5.48508
 21
89.62055
  0
LINE
  8
Engraving
 62
   7
 39
0.400
  6
CONTINUOUS
 10
5.48508
 20
89.62055
 30
 0
 11
5.42454
 21
89.49946
  0
LINE
  8
Engraving
 62
   7
 39
0.400
  6
CONTINUOUS
 10
5.42454
 20
89.49946
 30
 0
 11
5.40435
 21
89.33802
  0
LINE
  8
Engraving
 62
   7
 39
0.400
  6
CONTINUOUS
 10
5.40435
 20
89.33802
 30
 0
 11
5.40435
 21
87.68317
  0
LINE
  8
Engraving
 62
   7
 39
0.400
  6
CONTINUOUS
 10
5.40435
 20
87.68317
 30
 0
 11
5.42454
 21
87.50154
  0
LINE
  8
Engraving
 62
   7
 39
0.400
  6
CONTINUOUS
 10
5.42454
 20
87.50154
 30
 0
 11
5.52544
 21
87.34009
  0
LINE
  8
Engraving
 62
   7
 39
0.400
  6
CONTINUOUS
 10
5.52544
 20
87.34009
 30
 0
 11
5.66671
 21
87.23918
  0
LINE
  8
Engraving
 62
   7
 39
0.400
  6
CONTINUOUS
 10
5.66671
 20
87.23918
 30
 0
 11
5.84834
 21
87.19882
  0
LINE
  8
Engraving
 62
   7
 39
0.400
  6
CONTINUOUS
 10
5.84834
 20
87.19882
 30
 0
 11
6.02997
 21
87.19882
  0
LINE
  8
Engraving
 62
   7
 39
0.400
  6
CONTINUOUS
 10
6.02997
 20
87.19882
 30
 0
 11
6.25196
 21
87.19882
  0
LINE
  8
Engraving
 62
   7
 39
0.400
  6
CONTINUOUS
 10
6.25196
 20
87.19882
 30
 0
 11
6.47395
 21
87.21900
  0
LINE
  8
Engraving
 62
   7
 39
0.400
  6
CONTINUOUS
 10
6.47395
 20
87.21900
 30
 0
 11
6.69594
 21
87.29972
  0
LINE
  8
Engraving
 62
   7
 39
0.400
  6
CONTINUOUS
 10
6.69594
 20
87.29972
 30
 0
 11
6.69594
 21
88.49041
  0
LINE
  8
Engraving
 62
   7
 39
0.400
  6
CONTINUOUS
 10
6.69594
 20
88.49041
 30
 0
 11
6.02997
 21
88.49041
  0
LINE
  8
Engraving
 62
   7
 39
0.400
  6
CONTINUOUS
 10
4.49668
 20
75.05530
 30
 0
 11
4.49668
 21
75.35802
  0
LINE
  8
Engraving
 62
   7
 39
0.400
  6
CONTINUOUS
 10
4.49668
 20
75.35802
 30
 0
 11
4.47650
 21
75.49928
  0
LINE
  8
Engraving
 62
   7
 39
0.400
  6
CONTINUOUS
 10
4.47650
 20
75.49928
 30
 0
 11
4.41595
 21
75.64055
  0
LINE
  8
Engraving
 62
   7
 39
0.400
  6
CONTINUOUS
 10
4.41595
 20
75.64055
 30
 0
 11
4.31505
 21
75.72128
  0
LINE
  8
Engraving
 62
   7
 39
0.400
  6
CONTINUOUS
 10
4.31505
 20
75.72128
 30
 0
 11
4.21414
 21
75.78182
  0
LINE
  8
Engraving
 62
   7
 39
0.400
  6
CONTINUOUS
 10
4.21414
 20
75.78182
 30
 0
 11
4.09306
 21
75.82218
  0
LINE
  8
Engraving
 62
   7
 39
0.400
  6
CONTINUOUS
 10
4.09306
 20
75.82218
 30
 0
 11
3.81052
 21
75.82218
  0
LINE
  8
Engraving
 62
   7
 39
0.400
  6
CONTINUOUS
 10
3.81052
 20
75.82218
 30
 0
 11
3.62889
 21
75.80200
  0
LINE
  8
Engraving
 62
   7
 39
0.400
  6
CONTINUOUS
 10
3.62889
 20
75.80200
 30
 0
 11
3.48762
 21
75.70109
  0
LINE
  8
Engraving
 62
   7
 39
0.400
  6
CONTINUOUS
 10
3.48762
 20
75.70109
 30
 0
 11
3.40690
 21
75.58001
  0
LINE
  8
Engraving
 62
   7
 39
0.400
  6
CONTINUOUS
 10
3.40690
 20
75.58001
 30
 0
 11
3.34635
 21
75.41856
  0
LINE
  8
Engraving
 62
   7
 39
0.400
  6
CONTINUOUS
 10
3.34635
 20
75.41856
 30
 0
 11
3.34635
 21
73.70317
  0
LINE
  8
Engraving
 62
   7
 39
0.400
  6
CONTINUOUS
 10
3.34635
 20
73.70317
 30
 0
 11
3.38672
 21
73.52154
  0
LINE
  8
Engraving
 62
   7
 39
0.400
  6
CONTINUOUS
 10
3.38672
 20
73.52154
 30
 0
 11
3.44726
 21
73.40045
  0
LINE
  8
Engraving
 62
   7
 39
0.400
  6
CONTINUOUS
 10
3.44726
 20
73.40045
 30
 0
 11
3.56835
 21
73.29954
  0
LINE
  8
Engraving
 62
   7
 39
0.400
  6
CONTINUOUS
 10
3.56835
 20
73.29954
 30
 0
 11
3.66925
 21
73.23900
  0
LINE
  8
Engraving
 62
   7
 39
0.400
  6
CONTINUOUS
 10
3.66925
 20
73.23900
 30
 0
 11
3.83070
 21
73.21882
  0
LINE
  8
Engraving
 62
   7
 39
0.400
  6
CONTINUOUS
 10
3.83070
 20
73.21882
 30
 0
 11
4.03251
 21
73.21882
  0
LINE
  8
Engraving
 62
   7
 39
0.400
  6
CONTINUOUS
 10
4.03251
 20
73.21882
 30
 0
 11
4.17378
 21
73.23900
  0
LINE
  8
Engraving
 62
   7
 39
0.400
  6
CONTINUOUS
 10
4.17378
 20
73.23900
 30
 0
 11
4.33523
 21
73.31972
  0
LINE
  8
Engraving
 62
   7
 39
0.400
  6
CONTINUOUS
 10
4.33523
 20
73.31972
 30
 0
 11
4.43613
 21
73.42063
  0
LINE
  8
Engraving
 62
   7
 39
0.400
  6
CONTINUOUS
 10
4.43613
 20
73.42063
 30
 0
 11
4.51686
 21
73.58208
  0
LINE
  8
Engraving
 62
   7
 39
0.400
  6
CONTINUOUS
 10
4.51686
 20
73.58208
 30
 0
 11
4.51686
 21
73.70317
  0
LINE
  8
Engraving
 62
   7
 39
0.400
  6
CONTINUOUS
 10
4.51686
 20
73.70317
 30
 0
 11
4.51686
 21
73.94534
  0
LINE
  8
Engraving
 62
   7
 39
0.400
  6
CONTINUOUS
 10
5.04235
 20
75.80200
 30
 0
 11
5.76887
 21
73.23900
  0
LINE
  8
Engraving
 62
   7
 39
0.400
  6
CONTINUOUS
 10
5.76887
 20
73.23900
 30
 0
 11
6.49539
 21
75.80200
  0
LINE
  8
Engraving
 62
   7
 39
0.400
  6
CONTINUOUS
 10
2.40817
 20
15.47059
 30
 0
 11
2.40817
 21
14.64317
  0
LINE
  8
Engraving
 62
   7
 39
0.400
  6
CONTINUOUS
 10
2.40817
 20
14.64317
 30
 0
 11
2.44854
 21
14.44135
  0
LINE
  8
Engraving
 62
   7
 39
0.400
  6
CONTINUOUS
 10
2.44854
 20
14.44135
 30
 0
 11
2.52926
 21
14.32027
  0
LINE
  8
Engraving
 62
   7
 39
0.400
  6
CONTINUOUS
 10
2.52926
 20
14.32027
 30
 0
 11
2.63017
 21
14.23954
  0
LINE
  8
Engraving
 62
   7
 39
0.400
  6
CONTINUOUS
 10
2.63017
 20
14.23954
 30
 0
 11
2.77143
 21
14.15882
  0
LINE
  8
Engraving
 62
   7
 39
0.400
  6
CONTINUOUS
 10
2.77143
 20
14.15882
 30
 0
 11
2.89252
 21
14.15882
  0
LINE
  8
Engraving
 62
   7
 39
0.400
  6
CONTINUOUS
 10
2.89252
 20
14.15882
 30
 0
 11
3.21542
 21
14.15882
  0
LINE
  8
Engraving
 62
   7
 39
0.400
  6
CONTINUOUS
 10
3.21542
 20
14.15882
 30
 0
 11
3.39705
 21
14.17900
  0
LINE
  8
Engraving
 62
   7
 39
0.400
  6
CONTINUOUS
 10
3.39705
 20
14.17900
 30
 0
 11
3.53831
 21
14.25972
  0
LINE
  8
Engraving
 62
   7
 39
0.400
  6
CONTINUOUS
 10
3.53831
 20
14.25972
 30
 0
 11
3.65940
 21
14.42117
  0
LINE
  8
Engraving
 62
   7
 39
0.400
  6
CONTINUOUS
 10
3.65940
 20
14.42117
 30
 0
 11
3.71994
 21
14.64317
  0
LINE
  8
Engraving
 62
   7
 39
0.400
  6
CONTINUOUS
 10
3.71994
 20
14.64317
 30
 0
 11
3.71994
 21
16.27783
  0
LINE
  8
Engraving
 62
   7
 39
0.400
  6
CONTINUOUS
 10
3.71994
 20
16.27783
 30
 0
 11
3.67958
 21
16.43928
  0
LINE
  8
Engraving
 62
   7
 39
0.400
  6
CONTINUOUS
 10
3.67958
 20
16.43928
 30
 0
 11
3.59886
 21
16.60073
  0
LINE
  8
Engraving
 62
   7
 39
0.400
  6
CONTINUOUS
 10
3.59886
 20
16.60073
 30
 0
 11
3.49795
 21
16.68146
  0
LINE
  8
Engraving
 62
   7
 39
0.400
  6
CONTINUOUS
 10
3.49795
 20
16.68146
 30
 0
 11
3.39705
 21
16.74200
  0
LINE
  8
Engraving
 62
   7
 39
0.400
  6
CONTINUOUS
 10
3.39705
 20
16.74200
 30
 0
 11
3.21542
 21
16.76218
  0
LINE
  8
Engraving
 62
   7
 39
0.400
  6
CONTINUOUS
 10
3.21542
 20
16.76218
 30
 0
 11
2.89252
 21
16.76218
  0
LINE
  8
Engraving
 62
   7
 39
0.400
  6
CONTINUOUS
 10
2.89252
 20
16.76218
 30
 0
 11
2.73107
 21
16.74200
  0
LINE
  8
Engraving
 62
   7
 39
0.400
  6
CONTINUOUS
 10
2.73107
 20
16.74200
 30
 0
 11
2.58980
 21
16.66128
  0
LINE
  8
Engraving
 62
   7
 39
0.400
  6
CONTINUOUS
 10
2.58980
 20
16.66128
 30
 0
 11
2.48890
 21
16.56037
  0
LINE
  8
Engraving
 62
   7
 39
0.400
  6
CONTINUOUS
 10
2.48890
 20
16.56037
 30
 0
 11
2.42835
 21
16.43928
  0
LINE
  8
Engraving
 62
   7
 39
0.400
  6
CONTINUOUS
 10
2.42835
 20
16.43928
 30
 0
 11
2.40817
 21
16.27783
  0
LINE
  8
Engraving
 62
   7
 39
0.400
  6
CONTINUOUS
 10
2.40817
 20
16.27783
 30
 0
 11
2.40817
 21
15.47059
  0
LINE
  8
Engraving
 62
   7
 39
0.400
  6
CONTINUOUS
 10
4.24535
 20
16.74200
 30
 0
 11
4.24535
 21
14.66335
  0
LINE
  8
Engraving
 62
   7
 39
0.400
  6
CONTINUOUS
 10
4.24535
 20
14.66335
 30
 0
 11
4.30590
 21
14.42117
  0
LINE
  8
Engraving
 62
   7
 39
0.400
  6
CONTINUOUS
 10
4.30590
 20
14.42117
 30
 0
 11
4.38662
 21
14.30009
  0
LINE
  8
Engraving
 62
   7
 39
0.400
  6
CONTINUOUS
 10
4.38662
 20
14.30009
 30
 0
 11
4.54807
 21
14.19918
  0
LINE
  8
Engraving
 62
   7
 39
0.400
  6
CONTINUOUS
 10
4.54807
 20
14.19918
 30
 0
 11
4.74988
 21
14.15882
  0
LINE
  8
Engraving
 62
   7
 39
0.400
  6
CONTINUOUS
 10
4.74988
 20
14.15882
 30
 0
 11
5.01224
 21
14.15882
  0
LINE
  8
Engraving
 62
   7
 39
0.400
  6
CONTINUOUS
 10
5.01224
 20
14.15882
 30
 0
 11
5.17369
 21
14.17900
  0
LINE
  8
Engraving
 62
   7
 39
0.400
  6
CONTINUOUS
 10
5.17369
 20
14.17900
 30
 0
 11
5.35531
 21
14.27991
  0
LINE
  8
Engraving
 62
   7
 39
0.400
  6
CONTINUOUS
 10
5.35531
 20
14.27991
 30
 0
 11
5.49658
 21
14.46154
  0
LINE
  8
Engraving
 62
   7
 39
0.400
  6
CONTINUOUS
 10
5.49658
 20
14.46154
 30
 0
 11
5.53694
 21
14.66335
  0
LINE
  8
Engraving
 62
   7
 39
0.400
  6
CONTINUOUS
 10
5.53694
 20
14.66335
 30
 0
 11
5.53694
 21
16.74200
  0
LINE
  8
Engraving
 62
   7
 39
0.400
  6
CONTINUOUS
 10
6.72733
 20
14.18000
 30
 0
 11
6.72733
 21
16.74300
  0
LINE
  8
Engraving
 62
   7
 39
0.400
  6
CONTINUOUS
 10
6.04117
 20
16.74300
 30
 0
 11
7.43367
 21
16.74300
  0
LINE
  8
Engraving
 62
   7
 39
0.400
  6
CONTINUOUS
 10
2.66035
 20
50.25200
 30
 0
 11
2.66035
 21
47.68900
  0
LINE
  8
Engraving
 62
   7
 39
0.400
  6
CONTINUOUS
 10
2.66035
 20
47.68900
 30
 0
 11
3.66941
 21
47.68900
  0
LINE
  8
Engraving
 62
   7
 39
0.400
  6
CONTINUOUS
 10
4.19435
 20
50.25200
 30
 0
 11
4.92087
 21
47.68900
  0
LINE
  8
Engraving
 62
   7
 39
0.400
  6
CONTINUOUS
 10
4.92087
 20
47.68900
 30
 0
 11
5.64739
 21
50.25200
  0
LINE
  8
Engraving
 62
   7
 39
0.400
  6
CONTINUOUS
 10
6.17135
 20
50.25200
 30
 0
 11
6.17135
 21
47.68900
  0
LINE
  8
Engraving
 62
   7
 39
0.400
  6
CONTINUOUS
 10
6.17135
 20
47.68900
 30
 0
 11
7.18041
 21
47.68900
  0
LINE
  8
Engraving
 62
   7
 39
0.400
  6
CONTINUOUS
 10
2.05498
 20
118.31783
 30
 0
 11
2.05498
 21
116.48135
  0
LINE
  8
Engraving
 62
   7
 39
0.400
  6
CONTINUOUS
 10
2.05498
 20
116.48135
 30
 0
 11
2.07516
 21
116.36027
  0
LINE
  8
Engraving
 62
   7
 39
0.400
  6
CONTINUOUS
 10
2.07516
 20
116.36027
 30
 0
 11
2.11552
 21
116.25936
  0
LINE
  8
Engraving
 62
   7
 39
0.400
  6
CONTINUOUS
 10
2.11552
 20
116.25936
 30
 0
 11
2.19624
 21
116.21900
  0
LINE
  8
Engraving
 62
   7
 39
0.400
  6
CONTINUOUS
 10
2.19624
 20
116.21900
 30
 0
 11
2.45860
 21
116.23918
  0
LINE
  8
Engraving
 62
   7
 39
0.400
  6
CONTINUOUS
 10
1.65135
 20
118.03530
 30
 0
 11
2.43842
 21
118.03530
  0
LINE
  8
Engraving
 62
   7
 39
0.400
  6
CONTINUOUS
 10
2.98335
 20
118.78300
 30
 0
 11
3.70987
 21
116.22000
  0
LINE
  8
Engraving
 62
   7
 39
0.400
  6
CONTINUOUS
 10
3.70987
 20
116.22000
 30
 0
 11
4.43639
 21
118.78300
  0
LINE
  8
Engraving
 62
   7
 39
0.400
  6
CONTINUOUS
 10
6.11168
 20
118.03630
 30
 0
 11
6.11168
 21
118.33902
  0
LINE
  8
Engraving
 62
   7
 39
0.400
  6
CONTINUOUS
 10
6.11168
 20
118.33902
 30
 0
 11
6.09150
 21
118.48028
  0
LINE
  8
Engraving
 62
   7
 39
0.400
  6
CONTINUOUS
 10
6.09150
 20
118.48028
 30
 0
 11
6.03095
 21
118.62155
  0
LINE
  8
Engraving
 62
   7
 39
0.400
  6
CONTINUOUS
 10
6.03095
 20
118.62155
 30
 0
 11
5.93005
 21
118.70228
  0
LINE
  8
Engraving
 62
   7
 39
0.400
  6
CONTINUOUS
 10
5.93005
 20
118.70228
 30
 0
 11
5.82914
 21
118.76282
  0
LINE
  8
Engraving
 62
   7
 39
0.400
  6
CONTINUOUS
 10
5.82914
 20
118.76282
 30
 0
 11
5.70806
 21
118.80318
  0
LINE
  8
Engraving
 62
   7
 39
0.400
  6
CONTINUOUS
 10
5.70806
 20
118.80318
 30
 0
 11
5.42552
 21
118.80318
  0
LINE
  8
Engraving
 62
   7
 39
0.400
  6
CONTINUOUS
 10
5.42552
 20
118.80318
 30
 0
 11
5.24389
 21
118.78300
  0
LINE
  8
Engraving
 62
   7
 39
0.400
  6
CONTINUOUS
 10
5.24389
 20
118.78300
 30
 0
 11
5.10262
 21
118.68209
  0
LINE
  8
Engraving
 62
   7
 39
0.400
  6
CONTINUOUS
 10
5.10262
 20
118.68209
 30
 0
 11
5.02190
 21
118.56101
  0
LINE
  8
Engraving
 62
   7
 39
0.400
  6
CONTINUOUS
 10
5.02190
 20
118.56101
 30
 0
 11
4.96135
 21
118.39956
  0
LINE
  8
Engraving
 62
   7
 39
0.400
  6
CONTINUOUS
 10
4.96135
 20
118.39956
 30
 0
 11
4.96135
 21
116.68417
  0
LINE
  8
Engraving
 62
   7
 39
0.400
  6
CONTINUOUS
 10
4.96135
 20
116.68417
 30
 0
 11
5.00172
 21
116.50254
  0
LINE
  8
Engraving
 62
   7
 39
0.400
  6
CONTINUOUS
 10
5.00172
 20
116.50254
 30
 0
 11
5.06226
 21
116.38145
  0
LINE
  8
Engraving
 62
   7
 39
0.400
  6
CONTINUOUS
 10
5.06226
 20
116.38145
 30
 0
 11
5.18335
 21
116.28054
  0
LINE
  8
Engraving
 62
   7
 39
0.400
  6
CONTINUOUS
 10
5.18335
 20
116.28054
 30
 0
 11
5.28425
 21
116.22000
  0
LINE
  8
Engraving
 62
   7
 39
0.400
  6
CONTINUOUS
 10
5.28425
 20
116.22000
 30
 0
 11
5.44570
 21
116.19982
  0
LINE
  8
Engraving
 62
   7
 39
0.400
  6
CONTINUOUS
 10
5.44570
 20
116.19982
 30
 0
 11
5.64751
 21
116.19982
  0
LINE
  8
Engraving
 62
   7
 39
0.400
  6
CONTINUOUS
 10
5.64751
 20
116.19982
 30
 0
 11
5.78878
 21
116.22000
  0
LINE
  8
Engraving
 62
   7
 39
0.400
  6
CONTINUOUS
 10
5.78878
 20
116.22000
 30
 0
 11
5.95023
 21
116.30072
  0
LINE
  8
Engraving
 62
   7
 39
0.400
  6
CONTINUOUS
 10
5.95023
 20
116.30072
 30
 0
 11
6.05113
 21
116.40163
  0
LINE
  8
Engraving
 62
   7
 39
0.400
  6
CONTINUOUS
 10
6.05113
 20
116.40163
 30
 0
 11
6.13186
 21
116.56308
  0
LINE
  8
Engraving
 62
   7
 39
0.400
  6
CONTINUOUS
 10
6.13186
 20
116.56308
 30
 0
 11
6.13186
 21
116.68417
  0
LINE
  8
Engraving
 62
   7
 39
0.400
  6
CONTINUOUS
 10
6.13186
 20
116.68417
 30
 0
 11
6.13186
 21
116.92634
  0
LINE
  8
Engraving
 62
   7
 39
0.400
  6
CONTINUOUS
 10
6.65635
 20
116.22000
 30
 0
 11
7.38287
 21
118.78300
  0
LINE
  8
Engraving
 62
   7
 39
0.400
  6
CONTINUOUS
 10
7.38287
 20
118.78300
 30
 0
 11
7.46360
 21
118.78300
  0
LINE
  8
Engraving
 62
   7
 39
0.400
  6
CONTINUOUS
 10
7.46360
 20
118.78300
 30
 0
 11
8.19012
 21
116.22000
  0
LINE
  8
Engraving
 62
   7
 39
0.400
  6
CONTINUOUS
 10
6.87835
 20
117.00706
 30
 0
 11
7.96813
 21
117.00706
  0
CIRCLE
  8
Contour
 62
   7
 39
0.100
  6
CONTINUOUS
 10
7.50000
 20
125.50000
 30
 0
 40
1.50000
  0
CIRCLE
  8
Contour
 62
   7
 39
0.100
  6
CONTINUOUS
 10
7.50000
 20
3.00000
 30
 0
 40
1.50000
  0
CIRCLE
  8
Contour
 62
   7
 39
0.100
  6
CONTINUOUS
 10
4.92000
 20
81.51000
 30
 0
 40
3.00000
  0
CIRCLE
  8
Contour
 62
   7
 39
0.100
  6
CONTINUOUS
 10
4.92000
 20
67.54000
 30
 0
 40
3.00000
  0
CIRCLE
  8
Contour
 62
   7
 39
0.100
  6
CONTINUOUS
 10
4.92000
 20
22.45000
 30
 0
 40
3.00000
  0
CIRCLE
  8
Contour
 62
   7
 39
0.100
  6
CONTINUOUS
 10
4.92000
 20
38.96000
 30
 0
 40
3.75000
  0
ENDSEC
  0
EOF
